<svg xmlns="http://www.w3.org/2000/svg" xmlns:xlink="http://www.w3.org/1999/xlink" id="Camada_1" x="0px" y="0px" viewBox="0 0 1200 343.8" style="enable-background:new 0 0 1200 343.8;" xml:space="preserve">
<style type="text/css">
	.st0{opacity:0.2;}
	.st1{fill:#2F3533;}
</style>
<g>
	<g class="st0">
		<path class="st1" d="M178.3,332.3c-81,0-146.8-65.9-146.8-146.8S97.4,38.7,178.3,38.7v66.1c-44.5,0-80.7,36.2-80.7,80.7    c0,44.5,36.2,80.7,80.7,80.7V332.3z"></path>
	</g>
	<path class="st1" d="M415,11.4l56.6,22.1L415,79.3l-46.7-4.2L415,11.4z M368.7,106h64.1V330h-64.1V106z"></path>
	<path class="st1" d="M462.4,106.4l66.2-0.4l52.9,163.3L634,106h63.7L613.2,330h-65.8L462.4,106.4z"></path>
	<path class="st1" d="M854.6,275.1c10.1-5,19.5-12.2,28.1-21.6l36.7,33.3c-25.8,30.5-59.4,45.8-100.8,45.8   c-23.6,0-44.4-4.8-62.3-14.4s-31.9-23-41.9-40.2c-10-17.2-15-37.1-15-59.6s4.8-42.4,14.4-59.8s23.1-30.8,40.6-40.4   c17.5-9.6,37.7-14.4,60.8-14.4c32.2,0,58.2,9.2,78.1,27.7c19.8,18.5,30.3,43.7,31.4,75.6L769.8,248c4.7,10.8,11.7,19.3,21,25.4   c9.3,6.1,20,9.2,32.3,9.2C833.9,282.6,844.4,280.1,854.6,275.1z M779.4,166.4c-9.4,10-14.7,24.4-15.8,43.3l98.3-26.7   c-6.9-21.1-21.6-31.7-44.1-31.7C801.6,151.4,788.8,156.4,779.4,166.4z"></path>
	<path class="st1" d="M1185,106V330h-63.7V298c-8.1,11.1-18,19.6-30,25.6c-11.9,6-25.4,9-40.4,9c-21.1,0-39.6-4.8-55.6-14.4   c-16-9.6-28.3-23.1-37.1-40.6c-8.7-17.5-13.1-37.6-13.1-60.4c0-22.5,4.3-42.3,12.9-59.3c8.6-17.1,20.8-30.4,36.4-40   c15.7-9.6,33.8-14.4,54.3-14.4c31.4,0,55.5,11.7,72.5,35V106H1185z M1103.6,265.9c10.1-10,16-23.2,17.7-39.6v-15   c-1.7-16.4-7.6-29.6-17.7-39.6c-10.1-10-22.7-15-37.7-15c-16.7,0-30.2,5.8-40.6,17.3c-10.4,11.5-15.8,26.4-16,44.8   c0.3,18.3,5.6,33.3,16,44.8c10.4,11.5,23.9,17.3,40.6,17.3C1080.9,280.9,1093.5,275.9,1103.6,265.9z"></path>
	<g>
		<path class="st1" d="M178.6,332.3c-42.8,0-83.3-18.6-111.3-51l50.1-43.2c15.4,17.8,37.6,28.1,61.1,28.1    c44.5,0,80.7-36.2,80.7-80.7c0-44.5-36.2-80.7-80.7-80.7H15V38.7h163.6c81,0,146.8,65.9,146.8,146.8S259.6,332.3,178.6,332.3z"></path>
	</g>
</g>
</svg>